<svg width="719" height="720" viewBox="0 0 719 720" fill="none" xmlns="http://www.w3.org/2000/svg">
<circle cx="359.632" cy="360" r="359.368" fill="#E9FFD3"/>
<mask id="mask0_7789_8715" style="mask-type:alpha" maskUnits="userSpaceOnUse" x="0" y="0" width="719" height="720">
<circle cx="359.632" cy="360" r="359.368" fill="#D9D9D9"/>
</mask>
<g mask="url(#mask0_7789_8715)">
<g clip-path="url(#clip0_7789_8715)">
<path d="M415.434 131.828L478.735 192.879L542.356 537.036H-54.4146L37.2265 458.002L61.277 437.26L415.434 131.828Z" fill="#FFCF2D"/>
<path d="M479.278 192.4L415.785 131.157L426.405 120.129C442.046 103.892 470.226 105.746 486.475 121.344C502.724 136.974 505.571 165.135 489.93 181.372L479.278 192.4Z" fill="white" stroke="#FFCF2D" stroke-width="2" stroke-miterlimit="10" stroke-linecap="round"/>
<path d="M489.898 181.372L426.373 120.129" stroke="#FFCF2D" stroke-width="2" stroke-miterlimit="10" stroke-linecap="round"/>
<path d="M489.962 124.125L497.063 118.691C499.33 116.957 501.92 115.693 504.681 114.97C507.443 114.248 510.32 114.083 513.146 114.485C515.972 114.887 518.69 115.847 521.14 117.31C523.591 118.773 525.725 120.71 527.418 123.006L701.936 335.311L612.598 534.415" stroke="#3FB1B5" stroke-width="2" stroke-miterlimit="10" stroke-linecap="round"/>
<path d="M699.089 346.147C704.494 346.147 708.876 341.768 708.876 336.366C708.876 330.964 704.494 326.585 699.089 326.585C693.683 326.585 689.301 330.964 689.301 336.366C689.301 341.768 693.683 346.147 699.089 346.147Z" fill="white" stroke="#FFCF2D" stroke-width="2" stroke-miterlimit="10" stroke-linecap="round"/>
<path d="M587.776 512.168H635.468C642.051 512.169 648.364 514.782 653.018 519.434C657.673 524.085 660.289 530.394 660.289 536.972V537.675H562.923V536.972C562.936 530.392 565.56 524.086 570.219 519.437C574.878 514.787 581.192 512.173 587.776 512.168V512.168Z" fill="white" stroke="#FFCF2D" stroke-width="2" stroke-miterlimit="10" stroke-linecap="round"/>
<path d="M356.739 465.085H54.819C52.1216 465.088 49.4501 464.559 46.9575 463.528C44.4649 462.498 42.2001 460.987 40.2927 459.08C38.3853 457.174 36.8728 454.911 35.8417 452.42C34.8106 449.93 34.2812 447.26 34.2837 444.564V233.538C34.2812 230.842 34.8106 228.173 35.8417 225.682C36.8728 223.191 38.3853 220.928 40.2927 219.022C42.2001 217.116 44.4649 215.604 46.9575 214.574C49.4501 213.544 52.1216 213.015 54.819 213.017H356.739C359.436 213.015 362.107 213.544 364.6 214.574C367.093 215.604 369.357 217.116 371.265 219.022C373.172 220.928 374.685 223.191 375.716 225.682C376.747 228.173 377.276 230.842 377.274 233.538V444.532C377.279 447.23 376.752 449.903 375.722 452.397C374.693 454.891 373.181 457.157 371.273 459.066C369.366 460.976 367.1 462.49 364.606 463.523C362.112 464.556 359.438 465.087 356.739 465.085V465.085Z" fill="white" stroke="#3FB1B5" stroke-width="2" stroke-miterlimit="10" stroke-linecap="round"/>
<path d="M356.93 445.459H57.9216C55.7928 445.458 53.7517 444.612 52.2464 443.108C50.7412 441.603 49.8948 439.564 49.8931 437.436V235.552C49.8948 233.424 50.7412 231.385 52.2464 229.881C53.7517 228.376 55.7928 227.531 57.9216 227.529H356.93C359.059 227.531 361.1 228.376 362.606 229.881C364.111 231.385 364.957 233.424 364.959 235.552V437.404C364.964 438.461 364.761 439.508 364.36 440.486C363.959 441.464 363.368 442.352 362.622 443.101C361.876 443.85 360.988 444.444 360.012 444.848C359.035 445.253 357.988 445.461 356.93 445.459V445.459Z" fill="#66B0F0" stroke="#66B0F0" stroke-width="2" stroke-linejoin="round"/>
<path d="M68.6372 246.388H63.9032C63.1569 246.387 62.4414 246.09 61.9137 245.563C61.386 245.035 61.0892 244.32 61.0884 243.575V238.844C61.0892 238.098 61.386 237.383 61.9137 236.856C62.4414 236.329 63.1569 236.032 63.9032 236.031H68.6372C69.3834 236.032 70.0989 236.329 70.6266 236.856C71.1543 237.383 71.4511 238.098 71.452 238.844V243.575C71.4453 244.319 71.1466 245.03 70.6201 245.556C70.0937 246.082 69.3816 246.381 68.6372 246.388V246.388Z" stroke="white" stroke-width="2" stroke-miterlimit="10" stroke-linecap="round"/>
<path d="M90.1641 246.388H85.4301C84.6838 246.387 83.9683 246.09 83.4406 245.563C82.9129 245.035 82.6161 244.32 82.6152 243.575V238.844C82.6161 238.098 82.9129 237.383 83.4406 236.856C83.9683 236.329 84.6838 236.032 85.4301 236.031H90.1641C90.9103 236.032 91.6258 236.329 92.1535 236.856C92.6812 237.383 92.978 238.098 92.9788 238.844V243.575C92.978 244.32 92.6812 245.035 92.1535 245.563C91.6258 246.09 90.9103 246.387 90.1641 246.388V246.388Z" stroke="white" stroke-width="2" stroke-miterlimit="10" stroke-linecap="round"/>
<path d="M111.691 246.388H106.957C106.211 246.387 105.495 246.09 104.967 245.563C104.44 245.035 104.143 244.32 104.142 243.575V238.844C104.143 238.098 104.44 237.383 104.967 236.856C105.495 236.329 106.211 236.032 106.957 236.031H111.691C112.437 236.032 113.153 236.329 113.68 236.856C114.208 237.383 114.505 238.098 114.506 238.844V243.575C114.508 243.945 114.436 244.311 114.296 244.654C114.155 244.996 113.948 245.307 113.686 245.568C113.424 245.83 113.113 246.037 112.771 246.178C112.428 246.318 112.061 246.39 111.691 246.388V246.388Z" stroke="white" stroke-width="2" stroke-miterlimit="10" stroke-linecap="round"/>
<path d="M269.512 537.036H152.313L175.312 465.085H246.481L269.512 537.036Z" fill="white" stroke="#3FB1B5" stroke-width="2" stroke-miterlimit="10" stroke-linecap="round"/>
<path d="M161.525 508.237L175.312 465.085H246.481L161.525 508.237Z" fill="#3FB1B5"/>
<path d="M339.53 293.726H282.562C281.293 293.727 280.037 293.478 278.864 292.994C277.691 292.509 276.626 291.798 275.729 290.902C274.832 290.005 274.12 288.94 273.635 287.768C273.15 286.597 272.901 285.341 272.902 284.073V247.314C272.901 246.046 273.15 244.79 273.635 243.619C274.12 242.447 274.832 241.382 275.729 240.486C276.626 239.589 277.691 238.878 278.864 238.393C280.037 237.909 281.293 237.66 282.562 237.661H339.53C340.799 237.66 342.056 237.909 343.228 238.393C344.401 238.878 345.466 239.589 346.363 240.486C347.261 241.382 347.972 242.447 348.457 243.619C348.942 244.79 349.191 246.046 349.19 247.314V284.073C349.191 285.341 348.942 286.597 348.457 287.768C347.972 288.94 347.261 290.005 346.363 290.902C345.466 291.798 344.401 292.509 343.228 292.994C342.056 293.478 340.799 293.727 339.53 293.726Z" stroke="white" stroke-width="2" stroke-miterlimit="10" stroke-linecap="round"/>
<path d="M289.184 250.767H332.653" stroke="white" stroke-width="2" stroke-miterlimit="10" stroke-linecap="round"/>
<path d="M289.184 260.675H332.653" stroke="white" stroke-width="2" stroke-miterlimit="10" stroke-linecap="round"/>
<path d="M289.184 270.584H332.653" stroke="white" stroke-width="2" stroke-miterlimit="10" stroke-linecap="round"/>
<path d="M289.184 280.493H332.653" stroke="white" stroke-width="2" stroke-miterlimit="10" stroke-linecap="round"/>
<path d="M57.9219 445.459L101.167 357.942C103.497 353.967 106.614 350.508 110.326 347.777C114.038 345.045 118.268 343.099 122.758 342.056L181.197 329.686H231.576L287.104 341.928C291.871 343.018 296.346 345.12 300.226 348.093C304.107 351.066 307.3 354.84 309.591 359.156L355.267 445.459H128.836" fill="white"/>
<path d="M57.9219 445.459L101.167 357.942C103.497 353.967 106.614 350.508 110.326 347.777C114.038 345.045 118.268 343.099 122.758 342.056L181.197 329.686H231.576L287.104 341.928C291.871 343.018 296.346 345.12 300.226 348.093C304.107 351.066 307.3 354.84 309.591 359.156L355.267 445.459H128.836" stroke="#3FB1B5" stroke-width="2" stroke-miterlimit="10"/>
<path d="M293.117 444.148L277.028 412.408" stroke="#3FB1B5" stroke-width="2" stroke-miterlimit="10" stroke-linecap="round"/>
<path d="M128.836 445.459L143.486 415.701" stroke="#3FB1B5" stroke-width="2" stroke-miterlimit="10" stroke-linecap="round"/>
<path d="M212.672 345.028L226.106 361.362L256.173 335.854" stroke="#3FB1B5" stroke-width="2" stroke-miterlimit="10" stroke-linecap="round"/>
<path d="M202.404 345.348L189.354 362.001L156.312 335.854" stroke="#3FB1B5" stroke-width="2" stroke-miterlimit="10" stroke-linecap="round"/>
<path d="M207.49 361.905C209.487 361.905 211.105 360.288 211.105 358.294C211.105 356.299 209.487 354.682 207.49 354.682C205.494 354.682 203.876 356.299 203.876 358.294C203.876 360.288 205.494 361.905 207.49 361.905Z" stroke="#3FB1B5" stroke-width="2" stroke-miterlimit="10" stroke-linecap="round"/>
<path d="M207.49 390.992C209.487 390.992 211.105 389.375 211.105 387.38C211.105 385.386 209.487 383.769 207.49 383.769C205.494 383.769 203.876 385.386 203.876 387.38C203.876 389.375 205.494 390.992 207.49 390.992Z" stroke="#3FB1B5" stroke-width="2" stroke-miterlimit="10" stroke-linecap="round"/>
<path d="M231.544 301.557V329.654C231.544 337.804 220.221 344.389 206.307 344.389C192.392 344.389 181.069 337.804 181.069 329.654V301.557H231.544Z" fill="#E57281"/>
<path d="M188.458 340.074C183.884 337.421 181.037 333.713 181.037 329.654V301.557H231.544V309.356C231.54 313.306 230.357 317.165 228.146 320.439C225.935 323.713 222.797 326.254 219.133 327.736L188.458 340.074Z" fill="#9A3B82"/>
<path d="M245.618 299.895V300.375C245.619 301.529 245.392 302.673 244.95 303.739C244.508 304.806 243.86 305.776 243.043 306.592C242.226 307.408 241.256 308.056 240.189 308.497C239.121 308.939 237.977 309.166 236.822 309.165H231.032C230.057 313.081 227.799 316.559 224.616 319.045C221.434 321.53 217.51 322.879 213.472 322.877H199.142C195.105 322.884 191.183 321.536 188.005 319.05C184.826 316.563 182.575 313.082 181.613 309.165H175.824C174.668 309.166 173.524 308.939 172.456 308.497C171.389 308.056 170.419 307.408 169.602 306.592C168.785 305.776 168.137 304.806 167.695 303.739C167.253 302.673 167.027 301.529 167.027 300.375V299.895C167.027 298.741 167.253 297.597 167.695 296.53C168.137 295.463 168.785 294.494 169.602 293.678C170.419 292.861 171.389 292.214 172.456 291.772C173.524 291.331 174.668 291.104 175.824 291.105H181.069V284.169C181.063 280.631 182.335 277.209 184.65 274.532C186.964 271.854 190.168 270.101 193.672 269.593C195.239 272.214 199.973 278.479 209.633 278.128C213.786 277.955 217.901 277.268 221.884 276.082C222.854 275.802 223.871 275.718 224.874 275.836C225.877 275.954 226.847 276.27 227.726 276.768C228.605 277.265 229.375 277.932 229.993 278.731C230.61 279.53 231.061 280.444 231.32 281.42C231.486 282.316 231.571 283.225 231.576 284.137V291.073H236.822C239.157 291.084 241.393 292.018 243.041 293.671C244.689 295.324 245.615 297.562 245.618 299.895V299.895Z" fill="#E57281"/>
<path d="M235.574 291.073H231.544V283.37C231.542 282.712 231.456 282.056 231.288 281.42C231.029 280.444 230.578 279.53 229.961 278.731C229.343 277.932 228.573 277.265 227.694 276.767C226.815 276.27 225.845 275.953 224.842 275.836C223.839 275.718 222.822 275.802 221.852 276.082C217.87 277.271 213.754 277.958 209.601 278.128C199.941 278.479 195.207 272.214 193.64 269.593C190.136 270.101 186.933 271.854 184.618 274.532C182.303 277.209 181.032 280.631 181.037 284.169V291.105H176.016C176.016 291.105 170.258 270.296 174.576 264.415C178.83 258.63 183.948 261.155 183.948 261.155C183.948 261.155 180.877 243.83 198.022 244.15C215.167 244.47 237.397 264.319 239.029 267.963C241.588 273.557 235.574 291.073 235.574 291.073Z" fill="#9A3B82"/>
<path d="M233.495 301.526C233.496 299.89 234.147 298.321 235.304 297.164C236.462 296.008 238.031 295.357 239.669 295.356" stroke="#9A3B82" stroke-width="2" stroke-miterlimit="10" stroke-linecap="round"/>
<path d="M179.182 301.526C179.181 299.89 178.531 298.321 177.373 297.164C176.216 296.008 174.646 295.357 173.009 295.356" stroke="#9A3B82" stroke-width="2" stroke-miterlimit="10" stroke-linecap="round"/>
<path d="M223.483 284.169C221.967 283.185 220.233 282.586 218.433 282.424C216.632 282.263 214.819 282.543 213.152 283.242" stroke="#9A3B82" stroke-width="2" stroke-miterlimit="10" stroke-linecap="round"/>
<path d="M188.81 284.169C190.326 283.185 192.06 282.586 193.861 282.424C195.661 282.263 197.474 282.543 199.142 283.242" stroke="#9A3B82" stroke-width="2" stroke-miterlimit="10" stroke-linecap="round"/>
<path d="M214.271 307.758C214.271 307.758 211.808 313.064 204.259 310.283" stroke="#9A3B82" stroke-width="2" stroke-miterlimit="10" stroke-linecap="round"/>
<path d="M203.908 305.009C205.859 305.137 208.834 305.009 208.834 305.009" stroke="#9A3B82" stroke-width="2" stroke-miterlimit="10" stroke-linecap="round"/>
<path d="M218.334 297.498C219.217 297.498 219.933 296.296 219.933 294.813C219.933 293.33 219.217 292.128 218.334 292.128C217.45 292.128 216.734 293.33 216.734 294.813C216.734 296.296 217.45 297.498 218.334 297.498Z" fill="#9A3B82"/>
<path d="M195.399 297.498C196.282 297.498 196.998 296.296 196.998 294.813C196.998 293.33 196.282 292.128 195.399 292.128C194.516 292.128 193.8 293.33 193.8 294.813C193.8 296.296 194.516 297.498 195.399 297.498Z" fill="#9A3B82"/>
<path d="M199.206 303.859H189.13C188.197 303.859 187.302 303.488 186.642 302.829C185.982 302.169 185.611 301.275 185.611 300.342V290.274C185.611 289.341 185.982 288.447 186.642 287.788C187.302 287.128 188.197 286.758 189.13 286.758H199.206C200.139 286.758 201.034 287.128 201.694 287.788C202.353 288.447 202.724 289.341 202.724 290.274V300.342C202.724 301.275 202.353 302.169 201.694 302.829C201.034 303.488 200.139 303.859 199.206 303.859Z" stroke="white" stroke-width="2" stroke-miterlimit="10"/>
<path d="M223.867 303.859H213.791C212.858 303.859 211.963 303.488 211.303 302.829C210.644 302.169 210.273 301.275 210.273 300.342V290.274C210.273 289.341 210.644 288.447 211.303 287.788C211.963 287.128 212.858 286.758 213.791 286.758H223.867C224.8 286.758 225.695 287.128 226.355 287.788C227.015 288.447 227.386 289.341 227.386 290.274V300.342C227.386 301.275 227.015 302.169 226.355 302.829C225.695 303.488 224.8 303.859 223.867 303.859Z" stroke="white" stroke-width="2" stroke-miterlimit="10"/>
<path d="M202.756 293.406H210.273" stroke="white" stroke-width="2" stroke-miterlimit="10"/>
<path d="M226.522 433.057H191.561C190.034 433.057 188.569 432.451 187.49 431.372C186.41 430.293 185.803 428.83 185.803 427.304V408.733C185.803 407.207 186.41 405.743 187.49 404.664C188.569 403.585 190.034 402.979 191.561 402.979H226.522C228.049 402.979 229.513 403.585 230.593 404.664C231.673 405.743 232.279 407.207 232.279 408.733V427.304C232.279 428.83 231.673 430.293 230.593 431.372C229.513 432.451 228.049 433.057 226.522 433.057V433.057Z" stroke="#66B0F0" stroke-width="2" stroke-linejoin="round"/>
<path d="M209.921 425.577H198.086C197.179 425.577 196.309 425.216 195.667 424.575C195.025 423.934 194.664 423.064 194.664 422.157V413.879C194.664 412.972 195.025 412.102 195.667 411.461C196.309 410.82 197.179 410.459 198.086 410.458H209.921C210.829 410.459 211.699 410.82 212.34 411.461C212.982 412.102 213.343 412.972 213.344 413.879V422.157C213.343 423.064 212.982 423.934 212.34 424.575C211.699 425.216 210.829 425.577 209.921 425.577Z" fill="#66B0F0"/>
<path d="M221.436 425.354L217.79 422.924C217.293 422.582 216.888 422.123 216.609 421.588C216.331 421.053 216.187 420.459 216.19 419.856V416.212C216.187 415.609 216.331 415.014 216.609 414.479C216.888 413.945 217.293 413.486 217.79 413.143L221.436 410.714C221.635 410.582 221.867 410.509 222.105 410.502C222.343 410.495 222.579 410.555 222.785 410.674C222.991 410.794 223.16 410.969 223.272 411.179C223.384 411.39 223.435 411.627 223.419 411.865V424.235C223.429 424.47 223.373 424.703 223.259 424.909C223.144 425.114 222.975 425.284 222.77 425.4C222.565 425.516 222.332 425.572 222.097 425.564C221.861 425.556 221.633 425.483 221.436 425.354V425.354Z" fill="#66B0F0"/>
<path d="M694.099 537.675H-155.044" stroke="#3FB1B5" stroke-width="2" stroke-miterlimit="10" stroke-linecap="round"/>
<path d="M118.344 543.269V937.897H96.0492V862.781C96.0466 859.417 94.708 856.19 92.3271 853.811C89.9462 851.432 86.7177 850.094 83.3506 850.092H-76.2295C-79.5966 850.094 -82.8251 851.432 -85.206 853.811C-87.5869 856.19 -88.9256 859.417 -88.9281 862.781V937.897H-111.223V543.269H118.344Z" fill="white" stroke="#3FB1B5" stroke-width="2" stroke-miterlimit="10" stroke-linecap="round"/>
<path d="M119.015 543.269V647.983L-111.223 837.434L-111.191 543.269H119.015Z" fill="#D0F0E4"/>
<path d="M96.0493 573.315V644.883C96.051 646.462 95.7411 648.025 95.1373 649.484C94.5335 650.943 93.6476 652.269 92.5305 653.385C91.4134 654.501 90.0868 655.386 88.6269 655.99C87.167 656.593 85.6023 656.903 84.0224 656.901H-76.8691C-78.449 656.903 -80.0137 656.593 -81.4736 655.99C-82.9335 655.386 -84.26 654.501 -85.3771 653.385C-86.4943 652.269 -87.3801 650.943 -87.9839 649.484C-88.5877 648.025 -88.8977 646.462 -88.896 644.883V573.315C-88.8977 571.737 -88.5877 570.173 -87.9839 568.714C-87.3801 567.255 -86.4943 565.93 -85.3771 564.813C-84.26 563.697 -82.9335 562.812 -81.4736 562.208C-80.0137 561.605 -78.449 561.295 -76.8691 561.297H84.0224C85.6023 561.295 87.167 561.605 88.6269 562.208C90.0868 562.812 91.4134 563.697 92.5305 564.813C93.6476 565.93 94.5335 567.255 95.1373 568.714C95.7411 570.173 96.051 571.737 96.0493 573.315V573.315Z" stroke="#3FB1B5" stroke-width="2" stroke-miterlimit="10" stroke-linecap="round"/>
<path d="M44.487 711.112H-34.7113L-38.0059 688.45H41.2244L44.487 711.112Z" fill="#FFCF2D"/>
<path d="M86.7411 675.376C84.3926 675.375 82.067 675.837 79.8971 676.734C77.7271 677.632 75.7555 678.948 74.0949 680.607C72.4343 682.266 71.1173 684.237 70.2192 686.405C69.3211 688.574 68.8594 690.898 68.8607 693.244V711.112H1.46533V693.244C1.46407 690.898 1.92569 688.574 2.82382 686.405C3.72195 684.237 5.03895 682.266 6.69955 680.607C8.36015 678.948 10.3318 677.632 12.5017 676.734C14.6716 675.837 16.9973 675.375 19.3457 675.376H86.7411Z" fill="white" stroke="#3FB1B5" stroke-width="2" stroke-miterlimit="10" stroke-linecap="round"/>
<path d="M103.534 688.45H36.1386C35.0908 684.687 32.8373 681.37 29.7234 679.009C26.6095 676.648 22.8068 675.372 18.8979 675.376H86.2933C90.2006 675.378 94.0002 676.657 97.1128 679.017C100.225 681.377 102.48 684.69 103.534 688.45V688.45Z" fill="white" stroke="#3FB1B5" stroke-width="2" stroke-miterlimit="10" stroke-linecap="round"/>
<path d="M96.0493 723.13V794.698C96.051 796.276 95.7411 797.84 95.1373 799.299C94.5335 800.758 93.6476 802.083 92.5305 803.2C91.4134 804.316 90.0868 805.201 88.6269 805.805C87.167 806.408 85.6023 806.718 84.0224 806.716H-76.8691C-78.449 806.718 -80.0137 806.408 -81.4736 805.805C-82.9335 805.201 -84.26 804.316 -85.3771 803.2C-86.4943 802.083 -87.3801 800.758 -87.9839 799.299C-88.5877 797.84 -88.8977 796.276 -88.896 794.698V723.13C-88.8977 721.551 -88.5877 719.988 -87.9839 718.529C-87.3801 717.07 -86.4943 715.745 -85.3771 714.628C-84.26 713.512 -82.9335 712.627 -81.4736 712.023C-80.0137 711.42 -78.449 711.11 -76.8691 711.112H84.0224C85.6023 711.11 87.167 711.42 88.6269 712.023C90.0868 712.627 91.4134 713.512 92.5305 714.628C93.6476 715.745 94.5335 717.07 95.1373 718.529C95.7411 719.988 96.051 721.551 96.0493 723.13V723.13Z" stroke="#3FB1B5" stroke-width="2" stroke-miterlimit="10" stroke-linecap="round"/>
<path d="M-29.3696 607.676C-29.37 606.32 -29.1031 604.978 -28.584 603.725C-28.065 602.472 -27.304 601.334 -26.3445 600.375C-25.385 599.416 -24.2459 598.656 -22.9923 598.137C-21.7386 597.618 -20.3949 597.352 -19.038 597.352H26.2227C27.5796 597.352 28.9233 597.618 30.177 598.137C31.4306 598.656 32.5697 599.416 33.5292 600.375C34.4887 601.334 35.2497 602.472 35.7688 603.725C36.2878 604.978 36.5547 606.32 36.5543 607.676" stroke="#3FB1B5" stroke-width="2" stroke-miterlimit="10" stroke-linecap="round"/>
<path d="M660.289 543.269H636.523V938.76H660.289V543.269Z" fill="white" stroke="#3FB1B5" stroke-width="2" stroke-miterlimit="10" stroke-linecap="round"/>
<path d="M9.58999 509.611C5.30381 511.465 0.18597 511.241 -4.58 509.163C-8.33434 507.493 -11.611 504.911 -14.1119 501.652C-17.8223 496.857 -20.3173 490.304 -20.3173 482.154C-20.3173 462.4 -36.0546 449.998 -42.5159 476.144C-42.9637 477.966 -43.3795 479.948 -43.7314 482.154V481.962C-43.7347 481.875 -43.7238 481.789 -43.6993 481.706V481.578C-43.3384 477.438 -42.6431 473.333 -41.6202 469.304C-40.5327 464.989 -38.9014 460.194 -36.4704 455.751C-35.2724 453.534 -33.8351 451.455 -32.1842 449.55C-27.8981 444.628 -22.0126 441.176 -13.984 441.176C0.793704 441.176 11.6051 458.564 15.7314 475.889C19.3458 490.944 17.8745 505.999 9.58999 509.611Z" fill="white" stroke="#3FB1B5" stroke-width="2" stroke-miterlimit="10" stroke-linecap="round"/>
<path d="M-32.1523 449.55C-32.1523 449.55 -2.53297 428.486 6.16733 510.218" stroke="#3FB1B5" stroke-width="2" stroke-miterlimit="10" stroke-linecap="round"/>
<path opacity="0.4" d="M377.306 233.538V444.532C377.305 449.975 375.141 455.194 371.29 459.042C367.439 462.89 362.216 465.052 356.77 465.053H115.113C76.7294 465.053 87.7967 465.085 53.4113 465.053L53.3793 465.021C50.4608 464.816 47.6202 463.988 45.049 462.593C42.4777 461.198 40.2356 459.269 38.4736 456.934L44.0393 452.14L186.059 329.654L321.297 213.017H356.77C362.215 213.023 367.435 215.187 371.284 219.034C375.134 222.881 377.3 228.097 377.306 233.538V233.538Z" fill="white"/>
<path opacity="0.4" d="M9.58998 510.57C5.33579 512.488 0.185961 512.2 -4.58001 510.123V537.036H-54.3828L-14.08 502.291L-4.54803 494.077L2.7129 487.812L16.7549 475.889C20.8492 493.342 18.5782 506.447 9.58998 510.57Z" fill="white"/>
<path d="M433.697 652.586V830.498H392.563L366.366 757.396L328.846 652.586H433.697Z" fill="#A0505A"/>
<path d="M328.846 652.586H433.697V709.706L341.32 687.395L328.846 652.586Z" fill="#73325A"/>
<path d="M328.846 652.586L320.817 757.396L317.235 804.351C317.235 804.351 293.853 830.37 267.24 814.324L254.925 757.428L226.745 627.239C219.133 592.046 243.186 557.813 278.915 553.05L328.846 652.586Z" fill="#A0505A"/>
<path d="M278.916 553.018L424.838 537.995L570.696 578.877L569.448 598.247C567.465 628.805 541.109 652.586 510.466 652.586H328.879L278.916 553.018Z" fill="#FFDEE0"/>
<path d="M562.379 577.471C562.379 605.215 534.679 639.161 504.036 639.161H322.449" stroke="white" stroke-width="2" stroke-linecap="round" stroke-linejoin="round"/>
<path d="M545.074 571.941C540.532 596.713 516.286 623.179 489.737 623.179H315.092" stroke="white" stroke-width="2" stroke-linecap="round" stroke-linejoin="round"/>
<path d="M525.403 566.06C517.726 587.092 496.903 606.878 474.353 606.878H305.816" stroke="white" stroke-width="2" stroke-linecap="round" stroke-linejoin="round"/>
<path d="M510.273 561.936C500.198 577.247 483.661 589.297 466.036 589.297H297.5" stroke="white" stroke-width="2" stroke-linecap="round" stroke-linejoin="round"/>
<path d="M493.384 557.206C483.692 566.955 471.154 573.315 458.039 573.315H289.503" stroke="white" stroke-width="2" stroke-linecap="round" stroke-linejoin="round"/>
<path d="M471.41 550.845C464.565 554.712 457.08 557.014 449.403 557.014H280.867" stroke="white" stroke-width="2" stroke-linecap="round" stroke-linejoin="round"/>
<path d="M328.526 652.586L278.596 553.018" stroke="white" stroke-width="2" stroke-linecap="round" stroke-linejoin="round"/>
<path d="M578.692 445.459C564.938 449.359 551.408 448.208 549.968 444.021C548.625 440.026 554.702 433.185 567.017 428.646C567.625 428.423 568.265 428.199 568.904 427.975C572.447 426.785 576.102 425.961 579.812 425.514C590.143 424.203 598.556 426.057 599.611 429.19C601.051 433.377 593.246 441.336 578.692 445.459Z" fill="white" stroke="#3FB1B5" stroke-width="2" stroke-linejoin="round"/>
<path d="M569.991 538.666H564.714L550.864 445.236V445.172L550.512 442.838C551.183 438.587 557.837 432.578 569.576 428.678C574.945 426.888 580.55 425.908 586.209 425.77L591.262 439.61L591.742 440.92L607.735 484.743C617.331 510.922 597.916 538.666 569.991 538.666Z" fill="#A0505A"/>
<path d="M591.582 440.601C588.224 442.71 583.874 444.66 578.692 446.131C566.793 449.487 554.734 448.112 550.864 445.236V445.172L550.512 442.838C551.183 438.587 557.837 432.578 569.576 428.678C574.945 426.888 580.55 425.908 586.209 425.77L591.582 440.601Z" fill="#73325A"/>
<path d="M398.672 461.793L381.88 503.538C377.822 513.622 370.838 522.262 361.825 528.346C352.813 534.429 342.185 537.679 331.309 537.676H105.581V517.027C105.577 514.592 106.315 512.214 107.698 510.21C109.081 508.205 111.043 506.67 113.322 505.808L136.512 497.018C138.606 496.218 140.828 495.807 143.069 495.803H169.394L318.387 480.78L344.104 421.934L398.672 461.793Z" fill="#A0505A"/>
<path d="M129.891 509.707L112.394 516.324C110.674 516.976 109.193 518.135 108.147 519.648C107.102 521.161 106.542 522.956 106.541 524.794" stroke="#73325A" stroke-width="2" stroke-miterlimit="10" stroke-linecap="round"/>
<path d="M129.891 520.255L112.394 526.872C110.674 527.524 109.193 528.683 108.147 530.196C107.102 531.709 106.542 533.504 106.541 535.342" stroke="#73325A" stroke-width="2" stroke-miterlimit="10" stroke-linecap="round"/>
<path d="M129.891 530.42L112.394 536.717" stroke="#73325A" stroke-width="2" stroke-miterlimit="10" stroke-linecap="round"/>
<path d="M128.067 500.565C128.067 500.565 144.444 458.788 149.69 459.492C154.936 460.195 135.168 497.88 135.168 497.88L128.067 500.565Z" fill="#FFDEE0"/>
<path d="M344.104 421.966L340.329 430.564L388.661 486.661L398.672 461.793L344.104 421.966Z" fill="#73325A"/>
<path d="M550.863 445.268L570.695 578.877L424.869 537.995L398.672 461.761L331.053 412.377L354.787 384.12C365.246 371.66 378.309 361.641 393.058 354.766C407.807 347.891 423.884 344.327 440.158 344.325H487.018C507.029 344.329 526.67 349.715 543.88 359.917C561.09 370.119 575.236 384.761 584.833 402.308L600.026 428.582C600.026 428.582 595.452 421.87 570.791 428.614C549.072 434.592 550.863 445.268 550.863 445.268Z" fill="#3FB1B5"/>
<path d="M398.672 461.153L406.253 428.294" stroke="white" stroke-width="2" stroke-linecap="round" stroke-linejoin="round"/>
<path d="M567.016 547.68L542.354 394.477" stroke="white" stroke-width="2" stroke-linecap="round" stroke-linejoin="round"/>
<path d="M424.837 537.388L570.375 578.877" stroke="white" stroke-width="2" stroke-linecap="round" stroke-linejoin="round"/>
<path d="M432.706 322.973V344.453L470.642 344.133V306.224L432.706 322.973Z" fill="#A0505A"/>
<path d="M473.712 299.608V300.183C473.712 305.937 469.362 310.603 463.604 310.603H461.365C459.926 316.293 447.131 322.942 438.047 322.942H427.46C424.733 322.941 422.04 322.348 419.566 321.203C417.091 320.059 414.896 318.39 413.131 316.314C411.366 314.237 410.074 311.801 409.345 309.176C408.616 306.551 408.467 303.799 408.908 301.11L409.419 298.01L406.285 296.252C405.861 296.014 405.493 295.688 405.206 295.297C404.918 294.905 404.718 294.457 404.618 293.982C404.518 293.506 404.521 293.015 404.626 292.541C404.732 292.067 404.937 291.621 405.229 291.233L412.01 282.283L413.482 273.461C414.054 269.981 415.474 266.694 417.616 263.891C419.758 261.087 422.556 258.853 425.765 257.383C428.259 285.48 453.081 288.804 459.638 289.187H463.285C466.05 289.188 468.702 290.286 470.657 292.24C472.612 294.194 473.711 296.844 473.712 299.608V299.608Z" fill="#A0505A"/>
<path d="M456.919 302.357C456.919 301.278 457.131 300.21 457.544 299.213C457.957 298.216 458.562 297.31 459.326 296.547C460.089 295.784 460.996 295.179 461.993 294.767C462.991 294.354 464.06 294.142 465.14 294.142" stroke="#73325A" stroke-width="2" stroke-miterlimit="10" stroke-linecap="round"/>
<path d="M422.246 289.475C423.147 289.475 423.877 287.786 423.877 285.703C423.877 283.62 423.147 281.932 422.246 281.932C421.345 281.932 420.614 283.62 420.614 285.703C420.614 287.786 421.345 289.475 422.246 289.475Z" fill="#73325A"/>
<path d="M419.751 274.037C419.751 274.037 424.261 273.589 428.899 279.982" stroke="#73325A" stroke-width="2" stroke-miterlimit="10" stroke-linecap="round"/>
<path d="M459.638 289.187H463.284C466.05 289.188 468.701 290.286 470.657 292.24C472.612 294.194 473.711 296.844 473.712 299.608V300.183C473.712 305.936 469.362 310.603 463.604 310.603L461.141 312.329C450.778 318.978 436.448 345.124 439.966 363.631C443.932 384.44 462.069 389.075 478.83 385.878C495.59 382.682 507.809 372.933 503.843 352.092C503.367 349.582 502.66 347.121 501.732 344.741C502.02 344.837 502.276 344.933 502.564 345.028C522.715 350.526 546.385 351.166 552.91 335.439C559.435 319.713 557.964 304.146 538.356 296.028C526.969 291.297 511.488 291.329 499.493 294.589C505.538 273.589 494.791 250.223 475.055 247.89C444.06 244.214 426.276 257 425.796 257.351C425.764 261.059 428.291 287.365 459.638 289.187Z" fill="#73325A"/>
<path d="M500.292 293.854C497.765 302.069 492.552 310.859 484.075 316.836C484.075 316.836 499.045 326.713 502.563 345.06" stroke="white" stroke-width="2" stroke-linecap="round" stroke-linejoin="round"/>
<path d="M508.993 293.151H500.517V284.68C500.515 283.626 500.721 282.582 501.123 281.607C501.526 280.633 502.117 279.748 502.863 279.002C503.609 278.257 504.495 277.666 505.47 277.264C506.445 276.861 507.49 276.655 508.545 276.657H508.993C510.048 276.655 511.093 276.861 512.068 277.264C513.043 277.666 513.929 278.257 514.675 279.002C515.421 279.748 516.012 280.633 516.415 281.607C516.818 282.582 517.024 283.626 517.022 284.68V285.128C517.024 286.182 516.818 287.226 516.415 288.2C516.012 289.175 515.421 290.06 514.675 290.806C513.929 291.551 513.043 292.142 512.068 292.544C511.093 292.947 510.048 293.153 508.993 293.151V293.151Z" stroke="#FFDEE0" stroke-width="2" stroke-linejoin="round"/>
<path d="M505.89 301.845L500.452 293.215L509.088 287.781C511.164 286.478 513.672 286.049 516.064 286.588C518.455 287.127 520.536 288.59 521.851 290.658L522.363 291.457C523.667 293.531 524.096 296.037 523.557 298.427C523.017 300.817 521.553 302.896 519.484 304.211L518.684 304.722C516.606 306.035 514.09 306.47 511.691 305.93C509.292 305.391 507.205 303.922 505.89 301.845V301.845Z" stroke="#FFDEE0" stroke-width="2" stroke-linejoin="round"/>
<path d="M455.799 317.252L461.845 311.466L467.762 318.147C468.453 318.943 468.98 319.869 469.312 320.869C469.644 321.87 469.775 322.926 469.698 323.977C469.621 325.028 469.337 326.054 468.862 326.995C468.387 327.937 467.731 328.775 466.931 329.462L466.579 329.75C465.782 330.44 464.856 330.966 463.855 331.298C462.853 331.63 461.797 331.761 460.744 331.684C459.692 331.607 458.666 331.323 457.724 330.848C456.782 330.374 455.943 329.718 455.256 328.919L454.968 328.567C454.277 327.77 453.751 326.845 453.419 325.845C453.087 324.844 452.956 323.788 453.033 322.737C453.111 321.686 453.395 320.66 453.869 319.719C454.344 318.778 455 317.939 455.799 317.252V317.252Z" stroke="#FFDEE0" stroke-width="2" stroke-linejoin="round"/>
<path d="M464.628 321.407L461.909 311.594L471.729 308.877C472.899 308.55 474.122 308.458 475.327 308.604C476.533 308.75 477.698 309.133 478.756 309.729C479.814 310.326 480.743 311.125 481.491 312.082C482.24 313.038 482.792 314.132 483.116 315.302L483.372 316.229C483.699 317.398 483.792 318.62 483.645 319.825C483.499 321.03 483.116 322.194 482.519 323.251C481.922 324.308 481.122 325.237 480.165 325.984C479.208 326.732 478.113 327.284 476.943 327.608L476.015 327.864C473.649 328.503 471.126 328.183 468.994 326.974C466.862 325.765 465.293 323.765 464.628 321.407Z" stroke="#FFDEE0" stroke-width="2" stroke-linejoin="round"/>
<path d="M377.338 677.167L321.617 937.77" stroke="#FFCF2D" stroke-width="2" stroke-miterlimit="10" stroke-linecap="round"/>
<path d="M519.933 677.167L575.653 937.77" stroke="#FFCF2D" stroke-width="2" stroke-miterlimit="10" stroke-linecap="round"/>
<path d="M563.787 677.167H333.453C332.053 677.165 330.712 676.609 329.723 675.62C328.733 674.631 328.176 673.291 328.175 671.893V657.86C328.176 656.462 328.733 655.122 329.723 654.133C330.712 653.144 332.053 652.588 333.453 652.586H563.787C565.186 652.588 566.527 653.144 567.517 654.133C568.506 655.122 569.063 656.462 569.064 657.86V671.893C569.063 673.291 568.506 674.631 567.517 675.62C566.527 676.609 565.186 677.165 563.787 677.167V677.167Z" fill="white" stroke="#66B0F0" stroke-width="2" stroke-linejoin="round"/>
</g>
</g>
<defs>
<clipPath id="clip0_7789_8715">
<rect width="909.341" height="831.908" fill="white" transform="translate(-155.503 107.811)"/>
</clipPath>
</defs>
</svg>
